<?xml version="1.0" encoding="utf-8"?>
<!-- Generator: Adobe Illustrator 21.0.0, SVG Export Plug-In . SVG Version: 6.00 Build 0)  -->
<svg version="1.1" id="Layer_1" xmlns="http://www.w3.org/2000/svg" xmlns:xlink="http://www.w3.org/1999/xlink" x="0px" y="0px"
	 viewBox="0 0 2500 2500" style="enable-background:new 0 0 2500 2500;" xml:space="preserve">
<style type="text/css">
	.st0{display:none;}
	.st1{display:inline;}
	.st2{fill:none;stroke:#5440CC;stroke-width:80;stroke-linecap:round;stroke-miterlimit:10;}
	.st3{opacity:0;fill:none;stroke:#5440CC;stroke-width:100;stroke-linecap:round;stroke-miterlimit:10;stroke-dasharray:100,180;}
</style>
<g class="st0">
	<g class="st1">
		<g>
			<path d="M2331.8,2179.5L2205,1480.3c-3.1-17.3-19.7-28.7-36.9-25.6c-17.3,3.1-28.7,19.7-25.6,36.9l53.6,295.6l-413.4-480.2
				l278-62.1l41.2,22.9l17.9,98.6c3.1,17.3,19.7,28.7,36.9,25.6c17.3-3.1,28.7-19.7,25.6-36.9l-20.6-113.4
				c-1.7-9.4-7.5-17.5-15.8-22.1l-64.9-36.1c0,0,0,0,0,0l-205-114.1h0l-158.2-88c0,0,0,0,0,0c0,0,0,0,0,0c-1.2-0.7-2.5-1.3-3.8-1.8
				c-0.4-0.2-0.8-0.3-1.2-0.4c-0.9-0.3-1.8-0.6-2.7-0.8c-0.5-0.1-1-0.2-1.6-0.3c-0.8-0.2-1.6-0.3-2.5-0.4c-0.6-0.1-1.1-0.1-1.7-0.1
				c-0.8-0.1-1.6-0.1-2.4-0.1c-0.6,0-1.1,0-1.7,0.1c-0.8,0.1-1.6,0.1-2.4,0.2c-0.6,0.1-1.1,0.2-1.7,0.3c-0.8,0.2-1.5,0.3-2.3,0.5
				c-0.6,0.2-1.1,0.3-1.7,0.5c-0.7,0.2-1.5,0.5-2.2,0.8c-0.6,0.2-1.1,0.5-1.7,0.7c-0.2,0.1-0.5,0.2-0.7,0.3l-72.6,37.8
				c54-100.7,81.3-198.2,81.3-291.5c0-245-199.4-444.4-444.4-444.4S807.7,482.4,807.7,727.5c0,94.2,27.8,192.7,82.8,294.4
				l-78.2-40.8c-0.2-0.1-0.5-0.2-0.7-0.3c-0.5-0.3-1.1-0.5-1.6-0.7c-0.7-0.3-1.5-0.6-2.2-0.8c-0.6-0.2-1.1-0.4-1.7-0.5
				c-0.8-0.2-1.5-0.4-2.3-0.5c-0.6-0.1-1.1-0.2-1.7-0.3c-0.8-0.1-1.6-0.2-2.3-0.2c-0.6,0-1.2-0.1-1.7-0.1c-0.8,0-1.6,0-2.3,0.1
				c-0.6,0-1.2,0.1-1.8,0.1c-0.8,0.1-1.6,0.2-2.4,0.4c-0.6,0.1-1.1,0.2-1.7,0.3c-0.9,0.2-1.7,0.5-2.6,0.8c-0.4,0.2-0.9,0.3-1.3,0.4
				c-1.3,0.5-2.5,1.1-3.7,1.8c0,0,0,0,0,0c0,0,0,0,0,0l-428,238.2c-8.3,4.6-14.1,12.7-15.8,22.1l-120.6,664.7
				c-3.1,17.3,8.3,33.8,25.6,36.9c17.3,3.1,33.8-8.3,36.9-25.6l36.2-199.4l411.2-217.4l-33.1,427l-453,203.4l15.9-87.9
				c3.1-17.3-8.3-33.8-25.6-36.9c-17.3-3.1-33.8,8.3-36.9,25.6l-26.7,147.3c-2.1,11.6,2.4,23.4,11.7,30.7c5.7,4.5,12.6,6.8,19.6,6.8
				c4.4,0,8.8-0.9,13-2.8l512.2-230l512,229.9c0,0,0,0,0,0l0.2,0.1c0.3,0.1,0.6,0.2,0.9,0.3c0.5,0.2,0.9,0.4,1.4,0.5
				c0.5,0.2,0.9,0.3,1.4,0.5c0.3,0.1,0.6,0.2,0.9,0.3c0.4,0.1,0.8,0.2,1.2,0.3c0.7,0.2,1.3,0.3,2,0.4c0.3,0.1,0.6,0.1,1,0.2
				c0.2,0,0.4,0.1,0.6,0.1c1.1,0.1,2.1,0.2,3.2,0.2c0.1,0,0.3,0,0.4,0c0.1,0,0.1,0,0.2,0c1.3,0,2.6-0.1,3.8-0.3c0.2,0,0.3,0,0.5,0
				c0.2,0,0.5-0.1,0.7-0.2c1-0.2,2-0.4,3-0.6c0.3-0.1,0.5-0.1,0.8-0.2c0,0,0.1,0,0.1,0c0.1,0,0.2-0.1,0.3-0.1
				c1.2-0.4,2.4-0.8,3.6-1.4l512.2-230l512.2,230c0.5,0.2,1,0.4,1.5,0.6c0.5,0.2,1,0.4,1.5,0.6c0.7,0.2,1.3,0.4,2,0.6
				c0.4,0.1,0.8,0.2,1.3,0.3c0.8,0.2,1.6,0.3,2.5,0.4c0.3,0,0.6,0.1,0.9,0.1c1.1,0.1,2.3,0.2,3.4,0.2h0c0,0,0,0,0,0
				c1.5,0,3.1-0.2,4.6-0.4c0.4-0.1,0.7-0.1,1.1-0.2c1.5-0.3,3-0.6,4.5-1.1c0.1,0,0.2-0.1,0.3-0.1c1-0.3,2-0.7,2.9-1.2
				c0.3-0.1,0.5-0.3,0.8-0.5c0.8-0.4,1.6-0.9,2.3-1.3c0.8-0.5,1.5-0.9,2.3-1.5c0.2-0.2,0.5-0.3,0.8-0.5c0.6-0.4,1-0.9,1.6-1.4
				c0.4-0.4,0.9-0.7,1.3-1.1c1-1,1.8-2,2.7-3c0.2-0.2,0.3-0.4,0.5-0.6c0.9-1.3,1.8-2.6,2.5-4c0.2-0.4,0.4-0.8,0.6-1.2
				c0.5-1,0.9-2.1,1.3-3.1c0.2-0.5,0.3-1.1,0.5-1.6c0.3-1,0.5-2,0.7-3c0.1-0.6,0.2-1.2,0.3-1.8c0.1-1.1,0.2-2.2,0.2-3.3
				c0-0.5,0.1-1,0-1.6C2332.2,2182.8,2332.1,2181.1,2331.8,2179.5z M1773.4,1085.1l-32.6,7.6l-2.1-26.9L1773.4,1085.1z M1704,1441.2
				l-132.7-103.6c-9.2-7.2-21.5-8.7-32.2-4.1l-257.2,112v-34.8c19.2-15.7,62.9-52.6,115.2-105.5l286.6-125.9L1704,1441.2z
				 M1674.5,1059.7l4.1,52.4l-179,78.7c17.8-22,34.4-44,49.7-65.8L1674.5,1059.7z M825.6,1059.7l131.7,68.6
				c19.5,27.4,40.9,55,64.1,82.9c20.4,24.3,40.6,46.9,60.2,67.6l-270-38.6L825.6,1059.7z M733.4,1426.2L330.9,1639l19.6-108.1
				l0.5-2.8l390.5-205.8L733.4,1426.2z M747.3,1247.4l-381.9,201.3l32.8-180.7l363.2-202.2l-9.1,117.9L747.3,1247.4z M758.2,1929.5
				l30.1-388.4l375.3,570.4L758.2,1929.5z M1218.3,1807.1l-195.7-308.4l195.7,23.4V1807.1z M1218.3,1458.1l-254.6-30.5
				c-12.2-1.4-24.1,4.2-30.7,14.6c-6.5,10.4-6.5,23.6,0.1,34l285.2,449.5v153.4l-422-641.4l10.4-134.1l350.5,50.2
				c26.4,24.5,47.9,42.7,61.1,53.6L1218.3,1458.1L1218.3,1458.1z M1252.1,1352.7c-80.2-67.7-380.9-340.3-380.9-625.3
				c0-210,170.9-380.9,380.9-380.9s380.9,170.9,380.9,380.9C1632.9,1012.5,1332.3,1285.1,1252.1,1352.7z M1281.8,2136.1v-141
				l95,98.4L1281.8,2136.1z M1438.4,2065.8l-156.6-162.2v-388.8l265.4-115.5l163.5,127.7l31.2,402.6L1438.4,2065.8z M1745.7,1156.8
				l110.1-25.8l78.1,43.5l43.2,24.1l-224.4,50.1L1745.7,1156.8z M1805.5,1928.1l-24.8-320.2l408.1,492.4L1805.5,1928.1z
				 M1772.2,1498l-8.6-111.5l-0.4-4.7l455.3,528.8l29.2,161L1772.2,1498z"/>
		</g>
	</g>
	<g class="st1">
		<g>
			<path d="M1252.1,531.1c-17.5,0-31.8,14.2-31.8,31.8c0,17.5,14.2,31.8,31.8,31.8c73.2,0,132.8,59.6,132.8,132.8
				c0,73.2-59.6,132.8-132.8,132.8c-73.2,0-132.8-59.6-132.8-132.8c0-35,13.5-68.1,38.1-93.1c12.3-12.5,12.1-32.6-0.4-44.9
				c-12.5-12.3-32.6-12.1-44.9,0.4c-36.3,36.9-56.3,85.8-56.3,137.6c0,108.3,88.1,196.3,196.3,196.3c108.3,0,196.4-88.1,196.4-196.3
				C1448.4,619.2,1360.3,531.1,1252.1,531.1z"/>
		</g>
	</g>
</g>
<g>
	<g>
		<path class="st2" d="M1553.3,683.2c-71.4-91.9-174.8-143.1-299.9-143.1c-215,0-389.9,174.9-389.9,389.9
			c0,70.4,18.2,145.2,54,222.2c28.3,60.8,67.6,123.2,116.9,185.5c8.6,10.8,17.2,21.3,25.6,31.3"/>
		<path class="st2" d="M1162.8,1477.5c23.9,22.6,39.6,35.5,41,36.7c13.9,11.4,31.7,17.1,49.5,17.1c17.8,0,35.6-5.7,49.5-17.1
			c3.5-2.8,85.9-70.9,169.4-176.5c49.3-62.3,88.6-124.7,116.9-185.5c35.8-77,54-151.7,54-222.2c0-45.4-7.7-89-22-129.6"/>
		<path class="st2" d="M1253.4,1092.5c-89.6,0-162.5-72.9-162.5-162.5s72.9-162.5,162.5-162.5c89.6,0,162.5,72.9,162.5,162.5
			S1343,1092.5,1253.4,1092.5z"/>
	</g>
	<path class="st2" d="M1240,1650v527.5c0,3-3.1,5-5.8,3.7l-508.3-231.7c-5-2.3-10.8-2.3-15.9,0l-489.2,222.2
		c-11.4,5.2-23.9-4.5-21.8-16.9l153.1-870.1c3.7-20.8,16.5-38.8,34.9-49.1L751.9,1037"/>
	<line class="st2" x1="772.5" y1="1222" x2="724.2" y2="1818.2"/>
	<path class="st2" d="M1240,1650v526c0,2.8,2.9,4.7,5.5,3.5l512.7-233.7c2.5-1.1,5.3-1.1,7.7,0l510.2,231.7c4.2,1.9,8.8-1.7,8-6.2
		l-156.3-888.4c-3.7-20.8-16.5-38.8-34.9-49.1l-341.5-175.4"/>
	<line class="st2" x1="1700.7" y1="1203.8" x2="1769.9" y2="1947.6"/>
	<path class="st3" d="M2159.9,1295.4c0,0-215,342.2-475.6,375.2s-86.5-419.9-494.6-335.9c-239.5,49.3-299.7,518-478.1,537.1
		c-281,30-434-228-434-228"/>
</g>
</svg>
