<?xml version="1.0" encoding="utf-8"?>
<!-- Generator: Adobe Illustrator 21.0.0, SVG Export Plug-In . SVG Version: 6.00 Build 0)  -->
<svg version="1.1" id="Layer_1" xmlns="http://www.w3.org/2000/svg" xmlns:xlink="http://www.w3.org/1999/xlink" x="0px" y="0px"
	 viewBox="0 0 2500 2500" enable-background="new 0 0 2500 2500" xml:space="preserve">
<g>
	<g>
		<g>
			<path fill="none" stroke="#5440CC" stroke-width="80" stroke-linecap="round" stroke-miterlimit="10" d="M916.7,1393.5
				l311.8,311.9c138.6,138.6,362.9,138.6,501.6,0l50.5-50.5c38.3-38.3,38.3-100.7,0-139.1l-139.1-139.1
				c-38.3-38.3-100.7-38.3-139.1,0l-63.2,63.2c-29.1,29.1-76.4,29.1-105.3,0l-274-274.2c-29.2-29.2-29.2-76.3,0-105.3
				c10.2-10.2,39.4-39.4,63.2-63.2c38.2-38.2,38.7-100.3,0-139.1l-139-138.6c-38.3-38.3-100.7-38.3-139-0.1
				c-28.6,28.3-37.8,37.5-50.6,50.3c-138.3,138.3-138.3,363.3,0,501.6"/>
		</g>
	</g>
	<path fill="none" stroke="#5440CC" stroke-width="80" stroke-linecap="round" stroke-miterlimit="10" d="M2171.1,1077.5
		c10.4,55.9,15.9,113.6,15.9,172.5c0,173.3-47.1,335.7-129.2,474.9"/>
	<path fill="none" stroke="#5440CC" stroke-width="80" stroke-linecap="round" stroke-miterlimit="10" d="M1770.7,2042.3
		C1624.8,2170.4,1477.5,2187,1250,2187c-517.5,0-937-419.5-937-937s419.5-937,937-937c393.5,0,730.4,242.7,869.3,586.5"/>
	
		<line fill="none" stroke="#5440CC" stroke-width="80" stroke-linecap="round" stroke-miterlimit="10" x1="899.9" y1="878.6" x2="1066.3" y2="1050.4"/>
	<path fill="none" stroke="#5440CC" stroke-width="80" stroke-linecap="round" stroke-miterlimit="10" d="M1553.9,1538.8
		l166.4,171.7l73.1,73.1c10.2,10.2,17.7,22.9,21.8,36.8c17.9,61.1,42.8,227.8-183.2,312.2"/>
</g>
</svg>
