<?xml version="1.0" encoding="utf-8"?>
<!-- Generator: Adobe Illustrator 21.0.0, SVG Export Plug-In . SVG Version: 6.00 Build 0)  -->
<svg version="1.1" id="Layer_1" xmlns="http://www.w3.org/2000/svg" xmlns:xlink="http://www.w3.org/1999/xlink" x="0px" y="0px"
	 viewBox="0 0 2500 2500" enable-background="new 0 0 2500 2500" xml:space="preserve">
<g>
	
		<circle fill="none" stroke="#5440CC" stroke-width="80" stroke-linecap="round" stroke-miterlimit="10" cx="561.9" cy="1782.9" r="183"/>
	
		<circle fill="none" stroke="#5440CC" stroke-width="80" stroke-linecap="round" stroke-miterlimit="10" cx="1830.5" cy="1782.9" r="183"/>
	<path fill="none" stroke="#5440CC" stroke-width="80" stroke-linecap="round" stroke-miterlimit="10" d="M697.9,1146.8h-319
		c-23.7,0-43.1-19.4-43.1-43.1V919.8c0-23.7,19.4-43.1,43.1-43.1h318.9c23.7,0,43.1,19.4,43.1,43.1v183.9
		C740.9,1127.4,721.6,1146.8,697.9,1146.8z"/>
	<path fill="none" stroke="#5440CC" stroke-width="80" stroke-linecap="round" stroke-miterlimit="10" d="M1009,1175.6v538.5
		c0,31.2,25.6,56.8,56.8,56.8h234.4c31.2,0,56.8-25.6,56.8-56.8V933.6c0-31.2-25.6-56.8-56.8-56.8h-234.4
		c-31.2,0-56.8,25.6-56.8,56.8v89"/>
	
		<line fill="none" stroke="#5440CC" stroke-width="80" stroke-linecap="round" stroke-miterlimit="10" x1="864" y1="1770.9" x2="1506" y2="1770.9"/>
	<path fill="none" stroke="#5440CC" stroke-width="80" stroke-linecap="round" stroke-miterlimit="10" d="M138.9,1363V592.3
		c0-31.8,25.8-57.5,57.5-57.5h1876.7c0,0,288-21,288,168s-240,174-240,174h-401.7c-39.7,0-71.9,32.2-71.9,71.9v305.1
		c0,38.7,31.4,70.1,70.1,70.1h361.5"/>
	<path fill="none" stroke="#5440CC" stroke-width="80" stroke-linecap="round" stroke-miterlimit="10" d="M264.9,1782.9h-67.2
		c-32.5,0-58.8-26.3-58.8-58.8v-222.2"/>
	<path fill="none" stroke="#5440CC" stroke-width="80" stroke-linecap="round" stroke-miterlimit="10" d="M2140.8,1770.9
		c0,0,136.4-6.9,192-123.9c80.9-170-96-386-96-386l-180.3-251"/>
</g>
</svg>
