<?xml version="1.0" encoding="utf-8"?>
<!-- Generator: Adobe Illustrator 21.0.0, SVG Export Plug-In . SVG Version: 6.00 Build 0)  -->
<svg version="1.1" id="Layer_1" xmlns="http://www.w3.org/2000/svg" xmlns:xlink="http://www.w3.org/1999/xlink" x="0px" y="0px"
	 viewBox="0 0 2500 2500" enable-background="new 0 0 2500 2500" xml:space="preserve">
<g>
	<path fill="none" stroke="#5440CC" stroke-width="80" stroke-linecap="round" stroke-miterlimit="10" d="M934,263.2h-94.4
		c-64,0-115.9,51.9-115.9,115.9v761.2c0,184.6,307,238.6,307,438.6v175.4"/>
	<path fill="none" stroke="#5440CC" stroke-width="80" stroke-linecap="round" stroke-miterlimit="10" d="M1469.2,1754.4V1579
		c0-199.9,307-254,307-438.6V379.1c0-64-51.9-115.9-115.9-115.9h-580.1"/>
	<path fill="none" stroke="#5440CC" stroke-width="80" stroke-linecap="round" stroke-miterlimit="10" d="M723.6,482.5h-171
		c-50.9,0-92.1,41.2-92.1,92.1v273.8c0,46.5,18.5,91.2,51.4,124l54.5,54.5c16.4,16.4,38.7,25.7,62,25.7h85.5"/>
	<path fill="none" stroke="#5440CC" stroke-width="80" stroke-linecap="round" stroke-miterlimit="10" d="M1776.2,482.5h171.1
		c50.9,0,92.1,41.2,92.1,92.1v273.8c0,46.5-18.5,91.1-51.4,124l-54.5,54.5c-16.4,16.4-38.7,25.7-62,25.7h-51.4"/>
	<path fill="none" stroke="#5440CC" stroke-width="80" stroke-linecap="round" stroke-miterlimit="10" d="M1381.5,1754.4h131.6
		c48.4,0,87.7,39.3,87.7,87.7l0,0v131.6"/>
	<path fill="none" stroke="#5440CC" stroke-width="80" stroke-linecap="round" stroke-miterlimit="10" d="M899,1973.7v-131.6
		c0-48.4,39.3-87.7,87.7-87.7l0,0h274.5"/>
	<path fill="none" stroke="#5440CC" stroke-width="80" stroke-linecap="round" stroke-miterlimit="10" d="M1425.4,1973.7h254.9
		c28.8,0,52.1,23.3,52.1,52.1v158.9c0,28.8-23.3,52.1-52.1,52.1H819.7c-28.8,0-52.1-23.3-52.1-52.1v-158.9
		c0-28.8,23.3-52.1,52.1-52.1h485.5"/>
	<path fill="none" stroke="#5440CC" stroke-width="80" stroke-linecap="round" stroke-miterlimit="10" d="M1281.8,609.4l38.1,100.8
		c8.8,23.2,30.5,39.1,55.3,40.4l101.6,5.3c29.8,1.6,42.9,38.2,20.9,58.4l-84.1,76.9c-16.8,15.4-24,38.7-18.6,60.9l25.6,106.1
		c7,29.3-25,52.3-50.5,36.4l-86.6-54.1c-20.3-12.7-46.1-12.7-66.4,0l-86.6,54.1c-25.5,15.9-57.5-7.1-50.5-36.4l25.6-106.1
		c5.3-22.2-1.8-45.5-18.6-60.9l-84.1-76.9c-22-20.1-8.9-56.8,20.9-58.4l101.6-5.3c24.8-1.3,46.5-17.1,55.3-40.4l38.2-100.8
		C1229.9,580.4,1270.8,580.4,1281.8,609.4z"/>
</g>
</svg>
